<?xml version="1.0" encoding="UTF-8" standalone="no"?>
<svg
   viewBox="0 0 36 36"
   version="1.1"
   id="svg22"
   xmlns="http://www.w3.org/2000/svg"
   xmlns:svg="http://www.w3.org/2000/svg">
  <defs
     id="defs26" />
  <path
     fill="#A7A9AC"
     d="M2 36h32L23 19H13z"
     id="path2" />
  <path
     fill="#58595B"
     d="M5 36h26L21 19h-6z"
     id="path4" />
  <path
     fill="#808285"
     d="M8 36h20l-9-17h-2z"
     id="path6" />
  <path
     fill="#A7A9AC"
     d="M28 35c0 .553-.447 1-1 1H9c-.552 0-1-.447-1-1 0-.553.448-1 1-1h18c.553 0 1 .447 1 1zm-2-4c0 .553-.447 1-1 1H11c-.552 0-1-.447-1-1 0-.553.448-1 1-1h14c.553 0 1 .447 1 1z"
     id="path8" />
  <path
     fill="#58595B"
     d="M27.076 25.3L23 19H13l-4.076 6.3c1.889 2.517 4.798 4.699 9.076 4.699 4.277 0 7.188-2.183 9.076-4.699z"
     id="path10" />
  <path
     fill="#A7A9AC"
     d="M18 0C9 0 6 3 6 9v8c0 1.999 3 11 12 11s12-9.001 12-11V9c0-6-3-9-12-9z"
     id="path12" />
  <path
     fill="#E6E7E8"
     d="M8 11C8 2 12.477 1 18 1s10 1 10 10c0 6-4.477 11-10 11-5.523-.001-10-5-10-11z"
     id="path14" />
  <path
     fill="#FFAC33"
     d="M18 21.999c1.642 0 3.185-.45 4.553-1.228C21.77 19.729 20.03 19 18 19s-3.769.729-4.552 1.772c1.366.777 2.911 1.227 4.552 1.227z"
     id="path16" />
  <path
     fill="#269"
     d="M6 10s0 3 4 9c0 0-4-2-4-6v-3zm24 0s0 3-4 9c0 0 4-2 4-6v-3z"
     id="path20" />
  <path
     fill="#ffffff"
     d="m 9.5,22.028614 c 0,0 2.5,1.900386 8.5,1.900386 6,0 8.5,-1.900386 8.5,-1.900386 0,0 -1.5,4.600386 -8.5,4.600386 -7,0 -8.5,-4.600386 -8.5,-4.600386 z"
     id="path259-5"
     style="fill:#e6e7e8;fill-opacity:1" />
  <g
     id="g1354"
     transform="translate(-3.75833e-4,-2.6689968)">
    <path
       d="m 26.174818,12.963152 c -0.05023,-0.113015 -1.254882,-2.760069 -3.731158,-2.760069 -2.475439,0 -3.680928,2.647054 -3.731156,2.760069 -0.07702,0.173289 -0.02679,0.375878 0.120548,0.494752 1.333241,0.102952 2.571023,0.154278 3.610608,0.157096 1.099372,-0.0028 2.304273,-0.111433 3.348582,-0.06333 0.09209,0 0.185009,-0.03097 0.261189,-0.09125 0.149012,-0.118875 0.198405,-0.323138 0.121387,-0.497265 z"
       style="fill:#55acee;fill-opacity:1;stroke-width:0.837145"
       id="path701-6" />
    <path
       d="m 17.288103,12.963152 c -0.05023,-0.113015 -1.254881,-2.760069 -3.731157,-2.760069 -2.475439,0 -3.6809282,2.647054 -3.7311569,2.760069 -0.077017,0.173289 -0.026789,0.375878 0.1205489,0.494752 1.333241,0.102952 2.571023,0.154278 3.610608,0.157096 1.099372,-0.0028 2.304272,-0.111433 3.348582,-0.06333 0.09209,0 0.185009,-0.03097 0.261189,-0.09125 0.149012,-0.118875 0.198404,-0.323138 0.121386,-0.497265 z"
       style="fill:#55acee;fill-opacity:1;stroke-width:0.837145"
       id="path701" />
  </g>
  <text
     xml:space="preserve"
     style="font-style:normal;font-variant:normal;font-weight:normal;font-stretch:normal;font-size:37.5px;line-height:125%;font-family:'DejaVu Sans';-inkscape-font-specification:'DejaVu Sans, Normal';text-align:center;letter-spacing:0px;word-spacing:0px;writing-mode:lr-tb;text-anchor:middle;fill:#000000;fill-opacity:1;stroke:none;stroke-width:1px;stroke-linecap:butt;stroke-linejoin:miter;stroke-opacity:1"
     x="42.189911"
     y="11.600883"
     id="text1442"><tspan
       id="tspan1440" /></text>
</svg>
