<?xml version="1.0" encoding="UTF-8" standalone="no"?>
<svg
   viewBox="0 0 72 36"
   version="1.1"
   id="svg22"
   sodipodi:docname="logo_w_name.svg"
   inkscape:version="1.2.1 (9c6d41e410, 2022-07-14)"
   width="72"
   height="36"
   inkscape:export-filename="logo_w_name.png"
   inkscape:export-xdpi="1600"
   inkscape:export-ydpi="1600"
   xmlns:inkscape="http://www.inkscape.org/namespaces/inkscape"
   xmlns:sodipodi="http://sodipodi.sourceforge.net/DTD/sodipodi-0.dtd"
   xmlns="http://www.w3.org/2000/svg"
   xmlns:svg="http://www.w3.org/2000/svg">
  <defs
     id="defs26" />
  <sodipodi:namedview
     id="namedview24"
     pagecolor="#ffffff"
     bordercolor="#666666"
     borderopacity="1.0"
     inkscape:showpageshadow="2"
     inkscape:pageopacity="0.0"
     inkscape:pagecheckerboard="0"
     inkscape:deskcolor="#d1d1d1"
     showgrid="false"
     inkscape:zoom="4"
     inkscape:cx="-53.75"
     inkscape:cy="123"
     inkscape:window-width="2560"
     inkscape:window-height="1385"
     inkscape:window-x="0"
     inkscape:window-y="0"
     inkscape:window-maximized="1"
     inkscape:current-layer="svg22" />
  <path
     fill="#a7a9ac"
     d="M 0,36 H 32 L 21,19 H 11 Z"
     id="path2" />
  <path
     fill="#58595b"
     d="M 3,36 H 29 L 19,19 h -6 z"
     id="path4" />
  <path
     fill="#808285"
     d="M 6,36 H 26 L 17,19 h -2 z"
     id="path6" />
  <path
     fill="#a7a9ac"
     d="m 26,35 c 0,0.553 -0.447,1 -1,1 H 7 C 6.448,36 6,35.553 6,35 6,34.447 6.448,34 7,34 h 18 c 0.553,0 1,0.447 1,1 z m -2,-4 c 0,0.553 -0.447,1 -1,1 H 9 C 8.448,32 8,31.553 8,31 8,30.447 8.448,30 9,30 h 14 c 0.553,0 1,0.447 1,1 z"
     id="path8" />
  <path
     fill="#58595b"
     d="M 25.076,25.3 21,19 H 11 l -4.076,6.3 c 1.889,2.517 4.798,4.699 9.076,4.699 4.277,0 7.188,-2.183 9.076,-4.699 z"
     id="path10" />
  <path
     fill="#a7a9ac"
     d="M 16,0 C 7,0 4,3 4,9 v 8 c 0,1.999 3,11 12,11 9,0 12,-9.001 12,-11 V 9 C 28,3 25,0 16,0 Z"
     id="path12" />
  <path
     fill="#e6e7e8"
     d="M 6,11 C 6,2 10.477,1 16,1 21.523,1 26,2 26,11 26,17 21.523,22 16,22 10.477,21.999 6,17 6,11 Z"
     id="path14" />
  <path
     fill="#ffac33"
     d="m 16,21.999 c 1.642,0 3.185,-0.45 4.553,-1.228 C 19.77,19.729 18.03,19 16,19 c -2.03,0 -3.769,0.729 -4.552,1.772 1.366,0.777 2.911,1.227 4.552,1.227 z"
     id="path16" />
  <path
     fill="#226699"
     d="m 4,10 c 0,0 0,3 4,9 0,0 -4,-2 -4,-6 z m 24,0 c 0,0 0,3 -4,9 0,0 4,-2 4,-6 z"
     id="path20" />
  <path
     fill="#ffffff"
     d="m 7.5,22.028614 c 0,0 2.5,1.900386 8.5,1.900386 6,0 8.5,-1.900386 8.5,-1.900386 0,0 -1.5,4.600386 -8.5,4.600386 -7,0 -8.5,-4.600386 -8.5,-4.600386 z"
     id="path259-5"
     sodipodi:nodetypes="cscsc"
     style="fill:#e6e7e8;fill-opacity:1" />
  <g
     id="g1354"
     transform="translate(-2.0003758,-2.6689968)">
    <path
       d="m 26.174818,12.963152 c -0.05023,-0.113015 -1.254882,-2.760069 -3.731158,-2.760069 -2.475439,0 -3.680928,2.647054 -3.731156,2.760069 -0.07702,0.173289 -0.02679,0.375878 0.120548,0.494752 1.333241,0.102952 2.571023,0.154278 3.610608,0.157096 1.099372,-0.0028 2.304273,-0.111433 3.348582,-0.06333 0.09209,0 0.185009,-0.03097 0.261189,-0.09125 0.149012,-0.118875 0.198405,-0.323138 0.121387,-0.497265 z"
       style="fill:#55acee;fill-opacity:1;stroke-width:0.837145"
       id="path701-6"
       sodipodi:nodetypes="csscccccc" />
    <path
       d="m 17.288103,12.963152 c -0.05023,-0.113015 -1.254881,-2.760069 -3.731157,-2.760069 -2.475439,0 -3.6809282,2.647054 -3.7311569,2.760069 -0.077017,0.173289 -0.026789,0.375878 0.1205489,0.494752 1.333241,0.102952 2.571023,0.154278 3.610608,0.157096 1.099372,-0.0028 2.304272,-0.111433 3.348582,-0.06333 0.09209,0 0.185009,-0.03097 0.261189,-0.09125 0.149012,-0.118875 0.198404,-0.323138 0.121386,-0.497265 z"
       style="fill:#55acee;fill-opacity:1;stroke-width:0.837145"
       id="path701"
       sodipodi:nodetypes="csscccccc" />
  </g>
  <text
     xml:space="preserve"
     style="font-style:normal;font-variant:normal;font-weight:normal;font-stretch:normal;font-size:20px;line-height:90.9%;font-family:'DejaVu Sans';-inkscape-font-specification:'DejaVu Sans, Normal';text-align:center;letter-spacing:0.01px;word-spacing:0px;writing-mode:lr-tb;text-anchor:middle;fill:#58595b;fill-opacity:1;stroke:none;stroke-width:1px;stroke-linecap:butt;stroke-linejoin:miter;stroke-opacity:1"
     x="51.999489"
     y="11.201172"
     id="text1442"><tspan
       sodipodi:role="line"
       x="55.139374"
       y="11.201172"
       id="tspan1500"
       style="font-style:normal;font-variant:normal;font-weight:bold;font-stretch:semi-condensed;font-size:20px;font-family:'DejaVu Sans';-inkscape-font-specification:'DejaVu Sans Bold Semi-Condensed'">zug </tspan></text>
  <text
     xml:space="preserve"
     style="font-style:normal;font-variant:normal;font-weight:normal;font-stretch:normal;font-size:20px;line-height:125%;font-family:'DejaVu Sans';-inkscape-font-specification:'DejaVu Sans, Normal';text-align:center;letter-spacing:0px;word-spacing:0px;writing-mode:lr-tb;text-anchor:middle;fill:#000000;fill-opacity:1;stroke:none;stroke-width:1px;stroke-linecap:butt;stroke-linejoin:miter;stroke-opacity:1"
     x="50.655354"
     y="35.716797"
     id="text1508"><tspan
       sodipodi:role="line"
       id="tspan1506"
       x="50.655354"
       y="35.716797"
       style="font-style:normal;font-variant:normal;font-weight:bold;font-stretch:semi-condensed;font-size:20px;font-family:'DejaVu Sans';-inkscape-font-specification:'DejaVu Sans Bold Semi-Condensed';fill:#58595b;fill-opacity:1">lol</tspan></text>
</svg>
